<?xml version="1.0" standalone="no"?><!DOCTYPE svg PUBLIC "-//W3C//DTD SVG 1.1//EN" "http://www.w3.org/Graphics/SVG/1.1/DTD/svg11.dtd"><svg t="1604309446467" class="icon" viewBox="0 0 1024 1024" version="1.1" xmlns="http://www.w3.org/2000/svg" p-id="1758" xmlns:xlink="http://www.w3.org/1999/xlink" width="200" height="200"><defs><style type="text/css"></style></defs><path d="M518.8968 974.789549c-63.775407 0-122.094925-52.004057-164.190036-146.413627-39.397013-88.344817-61.041493-205.139053-61.041493-329.036689s21.680296-240.751565 61.041493-329.03669C396.813814 75.881035 455.121393 23.876978 518.8968 23.876978S640.991725 75.881035 683.086837 170.290604c39.397013 88.344817 61.041493 205.139053 61.041493 329.03669s-21.668357 240.763504-61.041493 329.048628C640.991725 922.845184 582.672207 974.789549 518.8968 974.789549z" fill="#FCCE0B" p-id="1759"></path><path d="M518.8968 47.753955c111.207023 0 201.366491 202.178308 201.366491 451.585278s-90.159467 451.573339-201.366491 451.573339-201.354552-202.178308-201.354552-451.573339S407.689777 47.753955 518.8968 47.753955m0-47.753955c-73.767922 0-139.823581 57.030161-186.001655 160.572674-40.698308 91.329439-63.106852 211.585837-63.106852 338.766559s22.408543 247.484873 63.106852 338.742681c46.166136 103.542513 112.221795 160.572674 186.001655 160.572674s139.823581-57.006284 186.001656-160.572674c40.698308-91.281685 63.11879-211.585837 63.11879-338.766558S745.644518 251.902114 704.898456 160.572674C658.720381 57.030161 592.676661 0 518.8968 0z" fill="#434E52" p-id="1760"></path><path d="M722.842004 500.115234c0 237.00288-81.408555 431.373416-184.93913 450.081028 90.326606-45.473704 157.910391-229.73234 157.910392-450.081028S628.229481 95.50791 537.914813 50.01033c103.518636 18.731489 184.927192 213.090087 184.927191 450.104904z" fill="#F4AF16" p-id="1761"></path><path d="M317.733264 500.652466c0 237.00288 81.408555 431.373416 184.93913 450.081028-90.326606-45.473704-157.910391-229.73234-157.910391-450.081028s67.583785-404.631201 157.910391-450.081027c-103.530575 18.671796-184.93913 213.078148-184.93913 450.081027z" fill="#FCE15B" p-id="1762"></path><path d="M413.90973 272.842223l267.780304 0 0 30.562531-267.780304 0 0-30.562531Z" fill="#F4AF16" p-id="1763"></path><path d="M398.270309 378.354587l304.968697 0 0 30.562531-304.968697 0 0-30.562531Z" fill="#F4AF16" p-id="1764"></path><path d="M438.658217 167.329859l210.606881 0 0 30.562531-210.606881 0 0-30.562531Z" fill="#F4AF16" p-id="1765"></path><path d="M568.632545 140.53989l30.562531 0 0 483.628182-30.562531 0 0-483.628182Z" fill="#F4AF16" p-id="1766"></path><path d="M461.997963 140.707029l30.562531 0 0 483.628181-30.562531 0 0-483.628181Z" fill="#F4AF16" p-id="1767"></path><path d="M497.932814 991.384049c-37.642055 0-75.749711-8.356942-107.315076-23.674024-35.815466-17.310809-60.635585-41.784711-71.893579-70.950439-3.068192-7.927157-6.972077-17.907733-11.532581-29.559698-23.638208-60.384876-67.631539-172.797687-101.298077-272.830285-18.826997-55.943759-32.353305-101.847248-40.184953-136.43305-11.37738-50.141653-11.508703-77.253961-0.453663-93.442551A33.236753 33.236753 0 0 1 193.059625 349.797722c7.330232 0 14.815665 2.172805 22.850268 6.649738 8.774789 4.453056 106.49132 54.773787 210.200972 136.098772 62.903897 49.353713 114.812447 99.901274 154.257214 150.222005 50.4043 64.300701 80.716123 128.696909 90.06396 191.373976l0.238769 1.587819v1.599757c0.596924 42.10705-13.012953 78.495564-39.397013 105.22584-30.956501 31.493733-78.340364 48.828419-133.340981 48.82842z" fill="#76DDA2" p-id="1768"></path><path d="M193.059625 373.674699c3.175638 0 7.019831 1.193849 11.604211 3.844194 0 0 403.819384 203.551234 442.189687 460.204866 1.313234 91.926364-72.765089 129.831066-148.908771 129.831066-68.156833 0-137.961177-30.323762-156.931435-79.367074C302.905661 789.695219 134.978877 373.674699 193.059625 373.674699m0-47.753955a56.791391 56.791391 0 0 0-47.515185 25.178273C130.119912 373.674699 129.248403 405.084864 142.416556 463.213366c8.010726 35.361804 21.751927 82.041295 40.84157 138.749116 33.845616 100.56983 77.982209 213.316918 101.680109 273.89281 4.548564 11.61615 8.476327 21.656419 11.520642 29.523883 13.478554 34.860387 42.453266 63.847038 83.772376 83.832069 34.741002 16.797454 76.537652 26.061721 117.701561 26.061721 61.447402 0 114.872139-19.865645 150.424959-55.943759 30.944563-31.386287 46.930199-73.684353 46.225828-122.333695v-3.199515l-0.477539-3.175638c-9.992515-66.855537-41.927973-134.976554-94.922925-202.584216-40.590862-51.82498-93.896214-103.733529-158.304361-154.269152-104.020053-81.611509-202.405139-132.660488-213.69895-138.48647-11.389318-6.255768-22.838329-9.431406-34.036631-9.431407z" fill="#434E52" p-id="1769"></path><path d="M525.976324 1000.111084c-55.012556 0-102.396418-17.346624-133.436489-48.828419-26.348245-26.730276-39.958122-63.11879-39.397013-105.225841v-1.599757l0.23877-1.587819c9.371714-62.677066 39.683537-127.073275 90.099774-191.385914 39.397013-50.32073 91.353316-100.868292 154.257214-150.222005 103.709652-81.360801 201.426183-131.681531 210.189034-136.098772 8.034603-4.476933 15.520035-6.649738 22.850268-6.649738a33.236753 33.236753 0 0 1 27.80474 14.744033c11.043102 16.188591 10.911779 43.253145-0.453662 93.442552-7.831649 34.621618-21.357956 80.477353-40.184954 136.43305-33.666538 100.032598-77.65987 212.445408-101.298077 272.830285-4.560503 11.663904-8.476327 21.64448-11.53258 29.559698-11.257995 29.117974-36.125867 53.651569-71.89358 70.950439-31.553426 15.269327-69.661082 23.674023-107.291199 23.674023z" fill="#76DDA2" p-id="1770"></path><path d="M830.909205 382.353981c58.080748 0-109.834097 416.068273-147.941753 514.548867-18.970259 49.043312-88.786541 79.367074-156.931435 79.367074C449.880396 976.234106 375.802073 938.36522 377.127246 846.438856 415.48561 589.761347 819.304994 386.198174 819.304994 386.198174c4.58438-2.602591 8.428573-3.844193 11.604211-3.844193m0-47.753955c-11.198302 0-22.683129 3.175638-34.036631 9.431406-11.341564 5.790167-109.726651 56.839145-213.69895 138.48647-64.46784 50.535623-117.677684 102.444172-158.304362 154.269152-53.054644 67.583785-84.990102 135.728679-94.970678 202.548401l-0.47754 3.175638v3.211454c-0.692432 48.649342 15.293204 90.947408 46.225829 122.333694 35.564758 36.078113 88.989496 55.943759 150.424959 55.943759 41.163909 0 82.972497-9.252329 117.701561-26.061721 41.31911-19.98503 70.281884-48.947804 83.772376-83.832068 3.044315-7.855526 6.960139-17.907733 11.508703-29.488068 23.709839-60.575892 67.834493-173.334919 101.692048-273.904748 19.101582-56.707822 32.830844-103.399252 40.84157-138.761056 13.132338-58.14044 12.308582-89.538666-3.104007-112.221794a56.791391 56.791391 0 0 0-47.527124-25.166335z" fill="#434E52" p-id="1771"></path><path d="M682.633174 897.034172c-9.144882 23.650146-30.108869 42.97856-57.018222 56.576498a98.850687 98.850687 0 0 0 23.518823-33.929185C687.504078 825.0809 843.301356 455.166824 830.407789 382.52112c58.558288-0.728248-109.643081 415.972765-147.774615 514.513052z" fill="#66C6A1" p-id="1772"></path></svg>