<?xml version="1.0" standalone="no"?><!DOCTYPE svg PUBLIC "-//W3C//DTD SVG 1.1//EN" "http://www.w3.org/Graphics/SVG/1.1/DTD/svg11.dtd"><svg t="1604309424033" class="icon" viewBox="0 0 1024 1024" version="1.1" xmlns="http://www.w3.org/2000/svg" p-id="1144" xmlns:xlink="http://www.w3.org/1999/xlink" width="200" height="200"><defs><style type="text/css"></style></defs><path d="M525.721682 294.897892a29.338489 29.338489 0 0 1-4.291425-0.316355h-1.774339c-28.169351 0-63.009666-10.769825-95.566723-29.544808-27.880505-16.120351-51.510849-36.504618-66.585854-57.439067-26.395012-36.642163-18.554909-62.500747-11.526326-74.646029 5.996991-10.398452 21.470877-27.86675 57.590367-27.86675 15.597678 0 33.10724 3.259832 51.263267 9.408123C464.80271 61.78551 491.55534 27.509132 525.721682 27.509132S586.833218 61.964319 596.75026 115.001925c18.692455-6.492155 36.738445-9.930797 52.845042-9.930797 36.160754 0 51.648395 17.482053 57.65914 27.908015 7.014829 12.117773 14.854931 37.976356-11.553836 74.632274-15.130022 20.934449-38.719103 41.263698-66.572098 57.425312-32.584566 18.788737-67.397373 29.558562-95.511706 29.558562h-3.31485a29.833653 29.833653 0 0 1-4.58027 0.302601z" fill="#76DDA2" p-id="1145"></path><path d="M525.721682 55.018263c25.51472 0 46.174078 44.509775 47.535779 100.408331 27.701696-15.006231 55.307109-22.873843 76.324086-22.873843 16.079087 0 28.320651 4.60778 33.836232 14.153448 13.204383 22.832579-17.303244 65.141624-68.071346 94.493868-29.517298 17.014398-59.309688 25.858584-81.743385 25.858583q-2.929723 0-5.680636-0.206318a17.289489 17.289489 0 0 1-2.20073 0.508919c-0.618955 0-1.224156-0.357619-1.870621-0.412637q-2.04943 0.110037-4.12637 0.110036c-22.433697 0-52.26735-8.830431-81.825912-25.858583-50.768103-29.352243-81.24822-71.661288-68.043837-94.493868 5.501826-9.531914 17.715881-14.125939 33.767459-14.125939 20.631849 0 47.50827 7.565011 74.659783 22.007305C479.795186 99.032874 500.358262 55.018263 525.721682 55.018263m0-55.018263C505.681279 0 486.768751 7.606275 470.895982 22.007305c-10.866107 9.834515-20.136684 22.777561-27.509131 38.512785a180.487413 180.487413 0 0 0-8.142703 20.398021 165.591218 165.591218 0 0 0-31.635502-3.246078 109.898981 109.898981 0 0 0-41.593807 7.551257 80.147855 80.147855 0 0 0-39.888241 34.097569c-17.59209 30.4251-12.846764 68.511492 13.039329 104.452173 17.303244 24.015472 44.014611 47.164406 75.113684 65.169133 37.137328 21.457123 76.021485 33.244786 109.348798 33.244785h0.206318a56.69632 56.69632 0 0 0 5.845691 0.302601 57.411558 57.411558 0 0 0 5.983236-0.316355h1.89813c33.286049 0 72.073925-11.801417 109.225007-33.217277 31.195355-18.032236 57.879213-41.18117 75.182457-65.196642 25.899847-35.940681 30.645173-74.040828 13.039329-104.5347a80.134101 80.134101 0 0 0-39.888241-34.07006 110.036527 110.036527 0 0 0-41.621316-7.551257A167.255521 167.255521 0 0 0 616.364271 81.151938a181.312687 181.312687 0 0 0-8.032667-20.27423c-7.413711-15.776487-16.698043-28.788306-27.509132-38.691593C564.825912 7.661293 545.803348 0 525.721682 0z" fill="#434E52" p-id="1146"></path><path d="M510.399095 996.463277c-110.2566 0-213.19577-30.823982-290.001266-86.777556C131.68088 845.011752 84.791565 752.498542 84.791565 642.145661c0-73.408118 27.674186-146.774972 75.925203-201.298071a277.732193 277.732193 0 0 1 93.008374-69.102939c38.333975-17.523317 80.739301-26.408766 126.033087-26.408767 42.377817 0 87.27272 7.853857 133.570589 23.382762 45.678913-10.728561 88.950777-16.175369 128.770245-16.175369 95.34665 0 173.692657 31.374165 226.551454 90.780135 45.486349 51.070703 70.533414 121.714153 70.533414 198.891022 0 56.737584-12.722973 109.14248-37.811302 155.770458-23.176443 43.093055-56.517511 80.574247-99.032874 111.411983-77.575751 56.173647-181.243914 87.066402-291.913151 87.066402z" fill="#FF6252" p-id="1147"></path><path d="M379.758229 372.845016c39.970768 0 84.136679 7.523748 132.222641 24.455618 48.14098-11.883945 91.412845-17.275735 130.118193-17.275734 189.923045 0 269.58949 130.035665 269.589491 262.134515 0 217.32214-200.899189 326.79473-401.275704 326.79473C311.095436 968.954145 112.300696 860.581921 112.300696 642.159415c0-129.11411 94.906504-269.314399 267.457533-269.300644m0-55.018264c-49.2551 0-95.497951 9.724478-137.449376 28.884589a305.062516 305.062516 0 0 0-102.18267 75.897694C87.473705 482.111287 57.282433 562.121597 57.282433 642.159415c0 61.524173 13.672038 118.399303 40.630987 169.057369 24.937028 46.848051 60.698899 87.465284 106.295285 120.71007 41.593807 30.260045 90.229952 53.71158 144.546733 69.515575a592.450414 592.450414 0 0 0 324.23638-0.110036c54.605626-15.872769 103.558126-39.310549 145.468288-69.694385 45.926495-33.286049 81.977212-73.862019 107.148068-120.641297 27.261549-50.671821 41.084888-107.464423 41.084888-168.796032 0-83.902852-27.509132-161.065966-77.493224-217.198349-40.603478-45.596386-116.446154-99.95443-247.100775-99.95443-39.695677 0-82.527395 5.089189-127.477316 15.130022-46.490433-14.827422-91.784218-22.32366-134.794745-22.337415z" fill="#434E52" p-id="1148"></path><path d="M911.674799 642.159415c0 163.115396-113.213831 265.463121-254.459468 306.396709C778.365547 897.416648 869.874673 793.322094 869.874673 636.836398c0-93.599821-35.115407-186.236821-114.341705-237.953989 108.784861 40.768533 156.141831 141.396937 156.141831 243.277006z" fill="#E54C4C" p-id="1149"></path><path d="M112.300696 640.412585c0 163.115396 113.213831 265.463121 254.459468 306.396709C245.609948 895.683573 154.100822 791.575264 154.100822 635.089568c0-93.599821 35.115407-186.236821 114.341706-237.953989C159.657666 437.904113 112.300696 538.546271 112.300696 640.412585z" fill="#FF8080" p-id="1150"></path></svg>