<?xml version="1.0" standalone="no"?><!DOCTYPE svg PUBLIC "-//W3C//DTD SVG 1.1//EN" "http://www.w3.org/Graphics/SVG/1.1/DTD/svg11.dtd"><svg t="1604309434117" class="icon" viewBox="0 0 1024 1024" version="1.1" xmlns="http://www.w3.org/2000/svg" p-id="1294" xmlns:xlink="http://www.w3.org/1999/xlink" width="200" height="200"><defs><style type="text/css"></style></defs><path d="M659.399493 671.844726c-5.67861-9.728111-138.474301-240.014364-97.19965-386.948398 37.772066-134.285162 123.265401-162.468755 188.348322-162.468755 24.052637 0 49.94384 3.85168 76.963784 11.450312 60.893783 17.128922 105.252105 46.545983 131.818225 87.518085 30.743622 47.372175 36.073137 107.812134 15.872181 179.65586-41.332833 146.94567-274.737667 274.214025-284.651962 279.555177l-19.782043 10.682303z" fill="#76DDA2" p-id="1295"></path><path d="M750.536529 145.700565c22.772622 0 46.545983 3.805134 70.656803 10.577575 101.668064 28.59087 170.719031 99.340765 131.585495 238.466709S679.484085 660.115138 679.484085 660.115138s-134.029159-229.79752-94.895624-368.876919c29.847612-106.136479 92.68469-145.456198 165.948068-145.456199m0-46.545983c-49.722747 0-92.952329 14.568893-128.501824 43.287764-37.748793 30.499256-65.42038 76.300503-82.246753 136.147002-19.002398 67.491676-7.517176 156.987966 34.10657 265.859021a1044.678053 1044.678053 0 0 0 65.38547 139.114308l22.67953 38.877533 39.564086-21.364606a1044.631507 1044.631507 0 0 0 128.327277-84.632235c92.277412-71.215355 148.691144-141.569609 167.693542-209.107831 10.996489-39.110263 14.964534-75.776861 11.776133-108.98742s-13.451789-63.325811-30.522528-89.601018c-15.709269-24.215548-37.143695-45.068149-63.698179-61.952704-23.214809-14.766713-50.572211-26.647576-81.339106-35.293492-29.09124-8.145547-57.088649-12.323049-83.259128-12.323049z" fill="#434E52" p-id="1296"></path><path d="M680.06591 664.653371c78.034341-49.396925 212.36605-147.318038 246.821714-254.350527 37.597518-116.795509 6.702622-191.036353-56.832646-234.824486 76.893965 40.727736 119.425357 114.410027 80.466369 235.452857-37.143695 115.375857-204.429959 217.276651-270.455437 253.722156z" fill="#66C6A1" p-id="1297"></path><path d="M636.056682 986.77485a224.793827 224.793827 0 0 1-40.657916-3.909863 22.807532 22.807532 0 0 1-3.490949-0.581825l-1.629109-0.418914-1.62911-0.337458a23.424266 23.424266 0 0 1-3.490948-1.024012c-44.847055-12.497597-79.919454-35.782225-101.540063-67.491676-25.018466-36.643325-31.523267-82.025659-19.304947-134.913533 10.181934-44.113956 41.367743-75.637223 71.517904-106.217934 21.434425-21.702065 41.670292-42.193934 54.505346-66.502574 23.64536-44.777236 25.065012-62.837078 25.134831-65.641473a23.272992 23.272992 0 0 1-0.407277-3.874953c-0.162911-6.644439-1.245105-16.512188-2.560029-20.014773q-0.337458-0.919283-0.605098-1.861839a97.746565 97.746565 0 0 0-4.212411-9.483745c-1.55929-3.234946-3.316401-6.912079-4.992057-10.798668l-0.139638-0.325822A242.679121 242.679121 0 0 1 584.92592 414.841078c-1.652382-33.745838 4.945511-52.515506 20.771145-59.031944a25.739929 25.739929 0 0 1 21.201695 0.709826c3.328038-26.554484 7.656814-46.964897 13.067785-61.824702 4.28223-11.764497 9.425562-20.573325 15.697633-26.938488 7.761543-7.854635 17.326742-12.008864 27.659951-12.008864h0.186184c14.289617 0.069819 25.530472 8.773918 29.347242 22.71444 1.82693 6.679349 2.036387 14.173252 2.327299 25.495563a606.261435 606.261435 0 0 0 8.599371 89.717383q0.488733 2.944033 0.954192 5.888067l3.490949-4.875692a606.098524 606.098524 0 0 0 47.069626-76.870692c4.061137-7.761543 6.981898-13.370334 10.19357-17.93184 8.587734-12.195048 18.758031-14.755077 25.774839-14.755077a31.325447 31.325447 0 0 1 13.649609 3.258219c21.795157 10.472846 24.041 35.153854 22.109343 53.981704-1.640746 15.755815-6.714258 36.073137-15.395084 61.440699h0.221093a25.600291 25.600291 0 0 1 19.165309 8.611007c11.35722 12.800145 9.06483 32.582188-7.214628 62.162161a242.702394 242.702394 0 0 1-50.339481 62.837077l-0.256003 0.23273c-3.211673 2.769486-6.411709 5.294606-9.227741 7.528813a97.676746 97.676746 0 0 0-7.93609 6.667712q-0.651644 0.733099-1.36147 1.408016c-2.711304 2.571666-8.017546 10.961579-11.089581 16.896192a23.435903 23.435903 0 0 1-2.048023 3.269855c-1.16365 2.52512-7.808089 19.363129-6.190616 70.028433 0.872737 27.485403 10.077205 54.772986 19.782043 83.678041 13.719429 40.669553 27.92759 82.712213 17.710747 126.837805S762.813032 932.083319 733.873067 954.925761C707.237128 976.022728 674.305844 986.77485 636.056682 986.77485z m169.020103-516.660417z" fill="#FFFFFF" p-id="1298"></path><path d="M683.312492 279.031534h0.069819c15.127445 0.069819 1.698928 23.470812 17.454744 118.471165q2.210934 13.347061 3.898226 25.600291c4.177502 13.963795 11.287401 14.243071 11.287401 14.243071a5.992795 5.992795 0 0 0 2.327299 0.360731c2.711304 0 7.691724-1.221832 14.11507-8.203729q6.981898-10.321572 14.755077-21.35297c50.479119-70.982625 53.807157-99.771316 64.070546-99.771316a8.250276 8.250276 0 0 1 3.549131 0.954193c13.498335 6.504801 17.03583 33.501472-19.363129 124.836327q-5.154968 12.939783-10.845214 24.727554c-2.95567 6.004432-2.536756 8.43646-0.872737 9.472108 25.030103-18.86276 41.449198-41.30956 48.035454-41.309561a2.245844 2.245844 0 0 1 1.768748 0.791282c6.656076 7.493903-15.336902 56.448641-55.599177 92.18432-7.424084 6.388436-15.267083 11.752861-19.351493 16.291095-7.540449 7.144808-15.755815 23.098444-15.755815 23.098444s-13.114331 13.18415-10.833578 84.71369 53.446426 138.148479 38.12116 204.523051C751.327811 930.279662 698.509756 963.501858 636.056682 963.501858a202.475028 202.475028 0 0 1-38.481891-3.863317v0.104729l-2.013114-0.523643-2.036387-0.418913v-0.104729c-77.161604-20.712963-129.106922-77.44088-106.508847-175.268901 15.325265-66.328026 90.520301-103.80918 123.940318-167.10008s27.415584-80.885283 27.415584-80.885283-0.384004-17.943477-4.026227-27.671587c-1.664019-5.91134-6.365163-14.184888-10.22848-23.1799-20.515142-49.769293-18.816214-103.401902-9.553563-107.230309a2.327299 2.327299 0 0 1 0.89601-0.186184c6.411709 0 11.066308 28.85851 26.135569 58.450118 1.943295-0.19782 3.38622-2.199298 3.362948-8.890282 0-8.715735 0.407277-17.710747 1.09383-26.973398 7.319356-97.886203 22.307163-120.682099 37.236787-120.682099m0-46.545983a61.952704 61.952704 0 0 0-44.218684 18.920942c-8.680826 8.797191-15.557995 20.352231-21.015512 35.328402-4.375322 12.032137-8.029182 26.682485-11.054671 44.579415a48.943102 48.943102 0 0 0-10.205207 2.967307c-12.357959 5.096785-28.171956 17.23365-33.37347 46.150342a159.419993 159.419993 0 0 0-1.768747 35.491313 266.557211 266.557211 0 0 0 19.398038 86.30789l0.26764 0.640007c1.861839 4.340413 3.735315 8.250276 5.399334 11.636496 1.058921 2.210934 2.49021 5.178241 3.013852 6.493165q0.337458 1.16365 0.721463 2.210934a85.283878 85.283878 0 0 1 1.373107 13.18415q0 2.001477 0.244366 3.956408c-0.744736 4.480051-4.421868 20.340595-22.28389 54.156252-11.229219 21.271514-30.254889 40.576461-50.490755 61.021784-30.91817 31.31381-65.967295 66.805123-77.638701 117.342425-6.784077 29.370516-8.273549 57.333015-4.421868 83.096217a167.041898 167.041898 0 0 0 27.182854 70.179706c24.611189 36.073137 63.849453 62.4298 113.618746 76.475051a46.545983 46.545983 0 0 0 5.818248 1.629109l1.233469 0.256003 1.221832 0.314186a46.545983 46.545983 0 0 0 5.91134 1.070557 247.554813 247.554813 0 0 0 43.857952 4.072774c43.055035 0 81.839475-12.730326 112.292186-36.817873 33.164013-26.240298 55.762088-64.570916 67.154217-113.944568 11.636496-50.537302-4.270594-97.746565-18.327481-139.498312-9.181195-27.217764-17.850385-52.93442-18.618393-76.97542-1.16365-38.214252 2.420391-54.098069 3.723679-58.438482q1.035648-1.664019 1.943294-3.490949a85.318788 85.318788 0 0 1 6.981898-11.217582q0.826191-0.814555 1.617473-1.664019c1.058921-0.954193 3.642223-2.990579 5.562245-4.514961 3.002216-2.327299 6.400073-5.061876 9.972477-8.145547l0.523642-0.453823A266.557211 266.557211 0 0 0 864.20182 485.823703a159.419993 159.419993 0 0 0 13.963796-32.71019c8.005909-28.276685-0.89601-46.12707-9.763021-56.111183a48.873283 48.873283 0 0 0-7.877907-7.133172c5.143331-17.454744 8.296822-32.302913 9.623382-45.056512 1.652382-15.883817 0.512006-29.312333-3.490949-41.041921a61.906158 61.906158 0 0 0-31.639632-36.317504 54.400618 54.400618 0 0 0-23.773361-5.632064c-10.263389 0-29.71961 3.200036-44.812146 24.646098-4.096047 5.818248-7.493903 12.311413-11.78777 20.550052-3.746952 7.168081-8.366641 16.023455-14.74344 26.950124-0.93092-12.625598-1.16365-22.609711-1.431289-30.685439-0.349095-12.544143-0.605098-21.608973-3.165127-30.999625-6.57462-24.029364-26.76394-39.657178-51.514767-39.843362h-0.46546zM775.915726 592.29764z" fill="#434E52" p-id="1299"></path><path d="M333.47288 680.59537c-9.914294-5.341152-243.330765-132.656053-284.651962-279.555176C28.608325 329.208105 33.949477 268.803055 64.693099 221.39597c26.56612-40.948829 70.912806-70.389164 131.818225-87.518085 27.019943-7.598632 52.911147-11.450312 76.963784-11.450312 65.071285 0 150.576257 28.183593 188.348322 162.468755C503.144627 431.830362 370.290753 662.116615 364.62378 671.844726l-11.333947 19.444584z" fill="#76DDA2" p-id="1300"></path><path d="M273.463471 145.700565c73.309924 0 136.147002 39.354629 165.948068 145.456198 39.133536 139.125945-94.895624 368.876919-94.895624 368.876919S110.354709 533.870794 71.221173 394.744849 101.138604 184.86901 202.806668 156.27814c24.110819-6.784077 47.884181-10.577575 70.656803-10.577575m0-46.545984c-26.182116 0-54.191161 4.142593-83.259128 12.323049-30.766895 8.657553-58.182479 20.526779-81.339106 35.293492-26.554484 16.896192-47.988909 37.737156-63.698178 61.952704C28.096319 235.057217 17.83293 265.184104 14.64453 298.359754s0.768009 69.818975 11.776134 108.98742c19.002398 67.491676 75.41613 137.892476 167.693542 209.107831a1044.631507 1044.631507 0 0 0 128.327276 84.632235l39.564086 21.364606L384.778191 683.562677a1044.678053 1044.678053 0 0 0 65.38547-139.114308c41.623746-108.871055 53.097331-198.320799 34.106569-265.859021-16.826373-59.846498-44.49796-105.647746-82.246752-136.147002-35.549495-28.718872-78.779077-43.287765-128.501824-43.287765z" fill="#434E52" p-id="1301"></path><path d="M378.052296 986.77485c-38.260798 0-71.180445-10.69394-97.851294-31.802543-28.916692-22.888987-48.733645-56.879192-58.915578-100.969875s3.991318-86.110069 17.710746-126.837805c9.751384-28.893419 18.955852-56.192639 19.782043-83.678042 1.617473-50.618757-5.026966-67.491676-6.190615-70.016796a23.272992 23.272992 0 0 1-2.071297-3.304764c-3.060398-5.899703-8.366641-14.301253-11.077944-16.872919q-0.709826-0.674917-1.36147-1.408016a97.502199 97.502199 0 0 0-7.947726-6.667713c-2.816032-2.234207-6.016068-4.759327-9.227742-7.528812l-0.256003-0.23273a242.690758 242.690758 0 0 1-50.339481-62.837078c-16.291094-29.614882-18.618393-49.362015-7.214627-62.162161A25.600291 25.600291 0 0 1 182.303163 403.786407h0.221093c-8.680826-25.414107-13.754338-45.696519-15.395084-61.440699-1.966568-18.82785 0.279276-43.473949 22.109342-53.981704a31.325447 31.325447 0 0 1 13.64961-3.258219c6.981898 0 17.198741 2.560029 25.774838 14.755077 3.211673 4.561506 6.14407 10.170297 10.19357 17.93184a606.063614 606.063614 0 0 0 47.011444 76.917238l3.490949 4.875692q0.46546-2.932397 0.954192-5.888067a606.156706 606.156706 0 0 0 8.599371-89.717383c0.314185-11.333947 0.523642-18.816214 2.327299-25.495563 3.816771-13.963795 15.057626-22.644621 29.347242-22.71444h0.186184c10.333208 0 19.898408 4.154229 27.659951 12.008864 6.283708 6.365163 11.415402 15.127445 15.697633 26.938488 5.410971 14.859805 9.728111 35.258582 13.067785 61.824702a25.751565 25.751565 0 0 1 21.201695-0.721462c15.825634 6.516438 22.423528 25.274469 20.771145 59.031943A242.690758 242.690758 0 0 1 411.542131 493.387425l-0.139638 0.325822c-1.675655 3.88659-3.490949 7.563722-4.992057 10.810304a97.66511 97.66511 0 0 0-4.212411 9.483745q-0.267639 0.942556-0.605098 1.861839c-1.314924 3.490949-2.397118 13.370334-2.560029 20.049682a23.435903 23.435903 0 0 1-0.407277 3.840044c0.069819 2.769486 1.466198 20.829328 25.134831 65.65311 12.800145 24.30864 33.082558 44.812146 54.505346 66.502573 30.150161 30.534165 61.33597 62.103978 71.517904 106.217935 12.206684 52.887874 5.713519 98.281844-19.304947 134.913533-21.632246 31.674542-56.727917 54.95917-101.598245 67.491676a22.807532 22.807532 0 0 1-3.42113 1.012375l-1.629109 0.337458-1.617473 0.418914a23.272992 23.272992 0 0 1-3.572404 0.605098 224.863646 224.863646 0 0 1-40.588098 3.863317z" fill="#FFFFFF" p-id="1302"></path><path d="M330.796486 279.031534c14.952897 0 29.940704 22.795895 37.236787 120.682099 0.69819 9.309197 1.035648 18.257662 1.093831 26.973398 0 6.690985 1.419652 8.704099 3.362947 8.890282 15.127445-29.591609 19.72386-58.450119 26.13557-58.450118a2.327299 2.327299 0 0 1 0.89601 0.186184c9.309197 3.816771 10.961579 57.44938-9.553563 107.230309-3.863317 8.995011-8.564461 17.256923-10.22848 23.1799-3.642223 9.728111-4.026228 27.671587-4.026228 27.671587s-6.004432 17.594382 27.415585 80.885283 108.615052 100.725508 123.940317 167.10008c22.586438 97.828021-29.358879 154.555938-106.508847 175.268901v0.104729l-2.036386 0.418914-2.013114 0.523642v-0.104729a202.475028 202.475028 0 0 1-38.458619 3.909863c-62.453073 0-115.271128-33.17565-134.098978-114.689303-15.325265-66.328026 35.840407-132.981875 38.12116-204.523052s-10.833578-84.71369-10.833578-84.71369-8.20373-16.011818-15.744178-23.133353c-4.08441-4.584779-11.939045-9.96084-19.351493-16.291095-40.262276-35.735679-62.255253-84.67878-55.599177-92.18432A2.245844 2.245844 0 0 1 182.303163 427.059398c6.586257 0 23.005352 22.400255 48.082 41.297924 1.664019-1.024012 2.082933-3.490949-0.872737-9.472107q-5.655337-11.78777-10.845214-24.727554C182.303163 342.869351 185.794111 315.87268 199.315719 309.367879a8.250276 8.250276 0 0 1 3.549132-0.954192c10.263389 0 13.603064 28.811964 64.070546 99.771315q7.842998 11.031398 14.755077 21.35297c6.423346 6.981898 11.403766 8.20373 14.115069 8.20373a5.992795 5.992795 0 0 0 2.327299-0.360732s7.109899-0.221093 11.287401-14.243071q1.698928-12.311413 3.898227-25.600291c15.755815-95.000352 2.327299-118.401345 17.454743-118.471164h0.069819m0-46.545984h-0.477096C305.650019 232.729917 285.390879 248.299549 278.804623 272.294003c-2.571666 9.379016-2.816032 18.443846-3.165127 30.999625-0.221093 8.075728-0.500369 18.071478-1.431289 30.68544-6.365163-10.938306-10.996489-19.782043-14.74344-26.950124-4.305503-8.227003-7.691724-14.731804-11.787771-20.550052-15.127445-21.434425-34.548756-24.634462-44.812145-24.646098a54.400618 54.400618 0 0 0-23.761725 5.562245A61.906158 61.906158 0 0 0 147.47513 303.712542c-4.002955 11.729588-5.131695 25.158104-3.490948 41.041921 1.326561 12.800145 4.480051 27.578495 9.623382 45.056512a48.803464 48.803464 0 0 0-7.877908 7.133172c-8.86701 9.99575-17.757293 27.834498-9.76302 56.111183a159.419993 159.419993 0 0 0 13.963795 32.71019 266.557211 266.557211 0 0 0 55.284992 69.062603l0.523642 0.453823c3.572404 3.083671 6.981898 5.818248 9.972477 8.145547 1.920022 1.524381 4.503324 3.560768 5.562245 4.514961q0.791282 0.849464 1.617473 1.664019a85.307151 85.307151 0 0 1 6.981898 11.217582q0.907647 1.780384 1.943294 3.490949c1.291651 4.352049 4.945511 20.22423 3.723679 58.438482-0.768009 24.041-9.437198 49.757656-18.618393 76.97542C202.876487 761.434107 186.957761 808.736463 198.594257 859.238855c11.403766 49.373652 33.990204 87.704269 67.154217 113.944568C296.212821 997.247696 335.043807 1010.047841 378.052296 1010.047841a247.589723 247.589723 0 0 0 43.857953-4.072773 46.545983 46.545983 0 0 0 5.91134-1.070558l1.221832-0.314185 1.233469-0.256003a46.545983 46.545983 0 0 0 5.818247-1.629109c49.769293-14.056887 89.007557-40.44846 113.618746-76.475051a167.041898 167.041898 0 0 0 27.182854-70.179707c3.85168-25.763202 2.327299-53.725701-4.421868-83.096217-11.636496-50.537302-46.720531-86.028614-77.6387-117.342424-20.18932-20.445323-39.249901-39.75027-50.490756-61.021785-17.850385-33.815657-21.539154-49.687837-22.28389-54.156251q0.209457-1.954931 0.244367-3.956409a85.283878 85.283878 0 0 1 1.349833-13.125967q0.384004-1.093831 0.721463-2.210934c0.535279-1.314924 1.954931-4.293867 3.013853-6.493165 1.652382-3.490949 3.490949-7.354265 5.399334-11.636496l0.267639-0.640007a266.557211 266.557211 0 0 0 19.398039-86.30789 159.419993 159.419993 0 0 0-1.768748-35.537859c-5.201514-28.928329-21.027148-41.065194-33.37347-46.150342a48.954738 48.954738 0 0 0-10.205207-2.967307c-3.025489-17.896931-6.679349-32.582188-11.054671-44.579415-5.457517-14.97617-12.323049-26.531211-21.015511-35.328402a61.952704 61.952704 0 0 0-44.218685-18.932579z" fill="#434E52" p-id="1303"></path><path d="M492.508869 776.992102c-2.72294-2.629848-67.317129-65.373834-132.888782-153.601745-38.749531-52.119865-69.70261-102.273162-91.928318-149.075149-28.532688-59.951227-43.055035-114.89876-43.055034-163.341492 0-99.2244 28.35814-174.454346 84.294776-223.618542C357.327697 44.847055 424.540097 23.272992 508.695235 23.272992s151.355902 21.574063 199.763725 64.117092c55.924999 49.152559 84.294776 124.394141 84.294776 223.618541 0 48.442732-14.464164 103.401902-43.055035 163.341493-22.28389 46.801986-53.225332 96.955284-91.928317 149.075148-65.571654 88.193002-130.165843 150.936988-132.888783 153.601746l-16.174729 15.63945z" fill="#76DDA2" p-id="1304"></path><path d="M508.695235 46.545983C652.720145 46.545983 769.480744 113.909658 769.480744 310.996989S508.695235 760.258821 508.695235 760.258821 247.909726 508.084319 247.909726 310.996989 364.670326 46.545983 508.695235 46.545983m0-46.545983c-41.891385 0-80.59437 5.24806-114.93367 15.581268-38.749531 11.636496-72.46046 29.95234-100.201865 54.319163-30.057069 26.414846-53.120604 59.997773-68.550598 99.806225-15.685996 40.460096-23.64536 87.995182-23.645359 141.290333 0 51.933681 15.232173 110.255798 45.265969 173.383788 22.923897 48.163456 54.691531 99.631678 94.313799 152.961738 66.688758 89.69411 132.656053 153.729747 135.390629 156.406141L508.695235 825.027557l32.361095-31.290537c2.769486-2.676394 68.655326-66.712031 135.39063-156.406141 39.657178-53.330061 71.389902-104.798282 94.313799-152.961738 30.033796-63.093081 45.265969-121.415198 45.265969-173.383789 0-53.295151-7.959363-100.841873-23.64536-141.290333-15.453267-39.796816-38.505165-73.379743-68.562234-99.794588-27.72977-24.378459-61.440698-42.647757-100.201866-54.319163C589.277969 5.24806 550.609893 0 508.695235 0z" fill="#434E52" p-id="1305"></path><path d="M536.30864 732.470869c76.800873-92.044682 203.73177-266.405936 203.73177-412.315958 0-159.210536-67.689496-238.629621-163.574223-267.453221 111.175082 19.782043 193.00292 93.825066 193.002921 258.830577 0 157.290515-166.099342 349.676701-233.160468 420.938602z" fill="#66C6A1" p-id="1306"></path><path d="M506.612302 1000.738645a23.272992 23.272992 0 0 1-3.200036-0.221094c-46.545983-2.082933-85.923885-16.884556-114.119115-42.857214-32.582188-30.068705-49.164195-72.832828-49.164195-127.117081 0-45.265969 23.272992-83.049671 45.789611-119.588268 16.000182-25.961022 31.104353-50.490756 38.144434-77.068512 12.963056-48.954738 10.286662-66.874942 9.716474-69.609518a23.272992 23.272992 0 0 1-1.268378-3.688769c-1.652382-6.434982-4.933874-15.813998-6.981898-18.932579q-0.546915-0.814555-1.012375-1.675656a97.583654 97.583654 0 0 0-6.237162-8.296821c-2.245844-2.804396-4.794236-5.992795-7.296083-9.402289l-0.209457-0.279276a242.667485 242.667485 0 0 1-34.909487-72.588461c-9.204468-32.512369-6.981898-52.282776 6.981897-62.19707a25.43738 25.43738 0 0 1 14.731804-4.770964 27.275946 27.275946 0 0 1 6.016068 0.640008c-2.734577-26.682485-3.106944-47.558359-1.163649-63.267629 2.327299-18.792941 10.053932-42.298662 33.652746-47.628177a33.617837 33.617837 0 0 1 7.377538-0.849464c5.713519 0 19.851862 1.861839 27.648315 19.072216 2.513483 5.550609 4.270594 12.299776 6.702621 21.632246a606.11016 606.11016 0 0 0 28.567597 85.481699q1.16365 2.769486 2.257481 5.527335 1.16365-2.75785 2.25748-5.527335A606.017068 606.017068 0 0 0 539.543586 312.044273c2.432028-9.309197 4.189139-16.070001 6.702621-21.632246 7.796452-17.210377 21.934795-19.072217 27.648315-19.072216a33.629473 33.629473 0 0 1 7.389174 0.849464c23.598814 5.329515 31.325447 28.846873 33.652746 47.628177 1.943295 15.697633 1.570927 36.585143-1.163649 63.267629a27.275946 27.275946 0 0 1 6.016068-0.640008 25.425743 25.425743 0 0 1 14.801623 4.747691c13.963795 9.914294 16.163093 29.673064 6.981898 62.19707a242.702394 242.702394 0 0 1-34.909488 72.588461l-0.197821 0.279276c-2.501847 3.409493-5.050239 6.597893-7.296082 9.402289a97.525472 97.525472 0 0 0-6.237162 8.296821q-0.46546 0.861101-1.012375 1.675656c-2.199298 3.328038-5.562245 13.265605-6.981898 18.932579a23.168263 23.168263 0 0 1-1.268378 3.688769c-0.570188 2.746213-3.246582 20.666417 9.716474 69.609518 6.981898 26.577757 22.109342 51.10749 38.144434 77.068512 22.51662 36.538597 45.789611 74.322299 45.789611 119.588268 0 54.272617-16.547097 97.048376-49.164195 127.117081C599.890453 983.609723 560.489278 998.411346 513.943295 1000.482642a22.749349 22.749349 0 0 1-3.153491 0.221093h-2.071296L506.961397 1000.738645z" fill="#FFFFFF" p-id="1307"></path><path d="M573.871249 294.624439a10.309935 10.309935 0 0 1 2.25748 0.279276c14.615439 3.293128 24.134092 28.800327 9.227741 125.988341a393.965204 393.965204 0 0 1-5.003693 26.53121c-1.536017 6.516438-0.581825 8.797191 1.280014 9.425562 20.794418-24.785736 31.790907-51.119126 38.132797-51.119127a2.245844 2.245844 0 0 1 1.326561 0.442187c8.145547 5.818248-2.245844 58.450119-33.431653 102.331345-5.818248 7.901181-12.229957 14.894715-15.127444 20.282412-5.736792 8.657553-10.147024 26.054114-10.147025 26.054115s-9.809566 15.790725 8.506279 84.946419 83.166036 122.578847 83.166036 190.698895c0 100.399686-63.372357 143.99-143.210355 146.806032v0.116365h-4.165866v-0.116365c-79.907817-2.792759-143.280174-46.371436-143.280173-146.782759 0-68.10841 64.838555-121.50829 83.166036-190.698895s8.506278-84.94642 8.506278-84.946419-4.421868-17.396561-10.147024-26.054115c-2.95567-5.387698-9.390652-12.381232-15.127445-20.282412C398.544165 464.610371 388.129501 411.931954 396.298322 406.113706a2.245844 2.245844 0 0 1 1.32656-0.442187c6.330254 0 17.326742 26.345027 38.132797 51.119126 1.850203-0.628371 2.804396-2.909124 1.280015-9.425561a393.965204 393.965204 0 0 1-5.003694-26.531211c-14.917988-97.188014-5.387698-122.683576 9.227742-125.988341a10.286662 10.286662 0 0 1 2.25748-0.279276c11.776134 0 6.714258 27.706497 41.402652 111.791816q5.154968 12.555779 9.5652 24.192275c5.934613 10.472846 11.694678 11.380493 13.568154 11.380493a4.503324 4.503324 0 0 1 1.256741 0c1.873476 0 7.633541-0.93092 13.568155-11.380493q4.421868-11.636496 9.576836-24.122456c34.688394-84.085319 29.614882-111.791816 41.402652-111.791816m-130.328754-46.545983a56.890828 56.890828 0 0 0-12.497596 1.419652 61.906158 61.906158 0 0 0-39.005534 28.265049c-6.539711 10.472846-10.670667 23.354447-12.625598 39.203354-1.570927 12.730326-1.838566 27.869408-0.756373 46.057251a49.187468 49.187468 0 0 0-9.309196 5.201514c-10.880124 7.73827-23.563904 23.121717-22.109343 52.480596a159.419993 159.419993 0 0 0 6.272072 35.014216A266.557211 266.557211 0 0 0 391.760088 535.453357l0.407278 0.558552c2.792759 3.805134 5.504063 7.191354 7.889544 10.181934 1.524381 1.908385 3.584041 4.480051 4.398595 5.655337q0.570188 1.012375 1.16365 1.989841a85.307151 85.307151 0 0 1 4.270594 12.497596q0.488733 1.943295 1.163649 3.793498c0.290912 4.526597 0.267639 20.817691-9.518653 57.786839-6.155706 23.272992-20.387141 46.3598-35.456403 70.819713-23.086808 37.469517-49.245651 79.93109-49.245651 131.794953 0 30.150161 4.840782 57.71702 14.394346 81.95584a167.030262 167.030262 0 0 0 42.275389 62.266889c32.081819 29.568336 76.253957 46.452892 127.908363 48.954739a46.545983 46.545983 0 0 0 5.17824 0.290912h4.165866a46.545983 46.545983 0 0 0 5.178241-0.290912c51.654405-2.49021 95.826543-19.386402 127.908362-48.954739A167.030262 167.030262 0 0 0 686.163434 912.475824c9.553563-24.238821 14.394345-51.817316 14.394345-81.955841 0-51.863862-26.170479-94.325436-49.24565-131.794952-15.127445-24.436641-29.300697-47.558359-35.456403-70.819714-9.786293-36.969147-9.809566-53.260242-9.518654-57.786838q0.640007-1.850203 1.16365-3.793498a85.307151 85.307151 0 0 1 4.189138-12.48596q0.628371-0.977466 1.16365-1.989841c0.814555-1.16365 2.874214-3.735315 4.398595-5.655337 2.385482-2.990579 5.096785-6.365163 7.889544-10.181934l0.407278-0.558552a266.557211 266.557211 0 0 0 38.318981-79.733269 159.419993 159.419993 0 0 0 6.272071-35.014216c1.431289-29.347243-11.240855-44.742327-22.109342-52.480597a49.222378 49.222378 0 0 0-9.309197-5.189877c1.082194-18.187843 0.814555-33.326924-0.756372-46.057251-1.966568-15.848907-6.097524-28.672326-12.625598-39.203354a61.906158 61.906158 0 0 0-38.993898-28.265049 56.937374 56.937374 0 0 0-12.497596-1.419652c-21.306424 0-39.564086 12.241594-48.873283 32.733463-3.339674 7.365902-5.306242 14.917988-8.029182 25.367561-2.036387 7.819725-4.54987 17.454744-8.296822 29.579972-3.746952-12.090319-6.260435-21.760247-8.296821-29.579972-2.72294-10.472846-4.654598-18.001659-8.029183-25.367561-9.309197-20.503506-27.543586-32.733463-48.873282-32.7451z" fill="#434E52" p-id="1308"></path></svg>